<svg width="30" height="34" xmlns="http://www.w3.org/2000/svg"><path d="M28.443 27.767a2.007 2.007 0 0 1-1.539-2.007 2.47 2.47 0 0 0-.802-1.872 8.163 8.163 0 0 0 .067-4.348c-.669-2.007-2.942-5.15-4.613-7.557-1.672-2.407-.268-5.149-1.807-8.697-1.538-3.548-5.617-3.345-7.817-1.806-2.2 1.539-1.538 5.283-1.404 7.024a10.44 10.44 0 0 1-.134 3.477c-.2.468-1.605 2.14-2.54 3.545-.936 1.404-1.568 4.31-2.237 5.488a2.74 2.74 0 0 0-.201 2.273 1.672 1.672 0 0 0-.803.937c-.334.801-1.07 1.136-2.407 1.403-1.337.268-1.271 1.07-1.004 2.007a4.369 4.369 0 0 1-.334 2.676c-.335 1.205 1.338 1.606 3.142 1.807 1.804.2 3.745 1.338 5.417 1.537a2.007 2.007 0 0 0 2.206-1.137 22.845 22.845 0 0 1 3.812-.467 16.106 16.106 0 0 1 3.811.4c.232.497.604.916 1.07 1.204a2.742 2.742 0 0 0 3.077-.602 25.78 25.78 0 0 1 4.815-3.01c1.401-.803 1.094-1.94.225-2.275zm-12.17-22.93a1.806 1.806 0 0 1 1.609 1.94 2.08 2.08 0 0 1-.87 1.739l-.401-.201a1.14 1.14 0 0 0 .535-1.004c.04-.53-.342-.999-.869-1.069-.547.07-.935.568-.87 1.115 0 .208.045.414.134.602l-.736-.267a2.41 2.41 0 0 1-.2-.87 1.805 1.805 0 0 1 1.58-2.007h.012l.076.022zm-.134 4.146c.467.134.935.468.868.736-.066.267-.267.267-.868.669-.734.485-1.52.888-2.342 1.203-.401.067-.669-.2-1.07-.467-.401-.268-1.271-1.004-1.07-1.338l.936-.736c.268-.267 1.004-.869 1.47-.802.705.21 1.397.455 2.076.735zm-4.014-3.811c.736 0 1.271.87 1.271 1.872-.004.18-.027.36-.067.535l-.535.268-.268.2c.127-.247.174-.527.134-.802-.067-.536-.468-1.004-.87-.937-.401.067-.6.602-.534 1.137.067.535.468 1.004.869.937h.134l-.535.468a1.94 1.94 0 0 1-.867-1.806c.007-1.07.608-1.872 1.277-1.872h-.01zm-1.338 26.202a2.537 2.537 0 0 1-1.07 1.27c-.803.268-3.01-.735-4.014-1.136-1.004-.402-3.478-.468-3.813-.87-.334-.401.201-1.203.268-2.007s-.268-1.27-.134-1.805c.134-.534 1.738-.535 2.342-.937.603-.401.736-1.47 1.27-1.738.536-.267 1.405.735 1.806 1.338a43.097 43.097 0 0 0 2.412 3.743 2.88 2.88 0 0 1 .943 2.14l-.01.002zm9.154-7.222a31.636 31.636 0 0 0-.134 3.41 6.95 6.95 0 0 1-4.078 2.608 11.894 11.894 0 0 1-3.746.134l-1.401-1.607a1.07 1.07 0 0 0 .944-1.177v-.094c-.134-1.07-3.345-2.608-3.878-3.945a6.38 6.38 0 0 1 .602-4.814c.735-1.205 1.203-3.612 1.94-4.482a4.955 4.955 0 0 0 1.07-3.345c-.201-.736 1.537 1.872 2.676 1.538 1.138-.335 3.544-2.14 3.879-1.805.334.334 3.477 7.155 3.812 9.366a9.514 9.514 0 0 1-.2 3.812s-1.279-.328-1.48.408l-.006-.007zm7.951 4.882c-.468.468-3.21 1.537-4.014 2.407-.804.87-1.873 1.538-2.474 1.338a1.982 1.982 0 0 1-.937-2.407c.285-1.16.442-2.35.469-3.544-.067-.803-.201-1.873 0-2.074a.669.669 0 0 1 .535-.067s-.134 1.54.735 1.94a2.877 2.877 0 0 0 2.676-.602c.271-.299.497-.637.669-1.003.27.201.4.54.334.87a2.14 2.14 0 0 0 .87 1.872c.734.401 1.672.87 1.203 1.27h-.066z" fill="#1E1E1E"/></svg>