<?xml version="1.0" standalone="no"?>
<!DOCTYPE svg PUBLIC "-//W3C//DTD SVG 20010904//EN"
 "http://www.w3.org/TR/2001/REC-SVG-20010904/DTD/svg10.dtd">
<svg version="1.0" xmlns="http://www.w3.org/2000/svg"
 width="660.000000pt" height="660.000000pt" viewBox="0 0 660.000000 660.000000"
 preserveAspectRatio="xMidYMid meet">
<metadata>
Created by potrace 1.14, written by Peter Selinger 2001-2017
</metadata>
<g transform="translate(0.000000,660.000000) scale(0.100000,-0.100000)"
fill="#000000" stroke="none">
<path d="M180 6282 c-88 -33 -146 -95 -168 -182 -9 -33 -11 -198 -8 -595 2
-302 6 -568 10 -590 3 -22 8 -56 11 -75 24 -164 120 -378 227 -501 137 -159
223 -221 483 -352 84 -42 345 -167 350 -167 2 0 59 -26 126 -59 68 -32 140
-65 159 -74 19 -9 89 -41 155 -72 66 -31 138 -64 160 -72 22 -9 46 -21 54 -27
7 -5 18 -11 25 -12 6 -2 38 -12 70 -24 111 -40 211 -22 285 51 63 63 75 114
76 321 0 71 3 128 6 128 4 0 3 17 0 38 -4 20 -4 51 -1 67 3 17 3 50 -1 75 -4
25 -4 46 0 48 4 1 5 22 1 45 -3 23 -3 57 1 75 4 18 3 47 -1 65 -4 18 -4 41 0
52 4 11 4 32 -1 47 -4 15 -4 30 1 33 5 3 7 11 4 18 -8 22 -9 227 -1 227 5 0 5
4 2 10 -3 5 -5 35 -5 67 0 32 0 76 -1 98 -1 22 -1 46 0 53 3 31 2 39 -2 70 -2
17 -1 32 3 32 4 0 4 17 1 38 -4 20 -4 51 -1 67 3 17 3 49 -1 73 -3 23 -3 42 2
42 4 0 4 15 0 33 -5 18 -5 41 -1 52 4 11 4 32 -1 47 -4 16 -3 30 2 34 5 3 7
10 3 15 -3 5 -5 49 -4 97 0 48 0 96 0 107 -1 11 -1 27 -1 35 2 79 1 118 -3
138 -3 12 -1 22 4 22 5 0 7 6 5 13 -3 6 -6 48 -9 92 -2 44 -9 98 -16 120 -15
52 -73 116 -130 146 l-45 24 -890 2 c-808 1 -894 0 -935 -15z"/>
<path d="M4605 6291 c-78 -19 -145 -75 -177 -149 -20 -44 -30 -158 -28 -304 1
-36 0 -87 0 -110 -1 -7 -1 -38 0 -68 0 -30 0 -73 0 -95 0 -22 0 -65 1 -95 1
-30 0 -59 -1 -65 -1 -5 -1 -14 0 -20 1 -5 1 -32 0 -60 0 -27 0 -72 0 -100 2
-76 2 -97 1 -135 -1 -19 -1 -43 -1 -52 1 -44 0 -85 0 -110 -1 -7 -1 -40 -1
-73 0 -33 0 -73 0 -90 0 -16 1 -50 1 -75 1 -25 1 -61 1 -80 -1 -19 -1 -43 -1
-52 1 -47 0 -88 0 -110 -1 -7 -1 -38 0 -68 0 -30 0 -73 0 -95 0 -22 0 -65 1
-95 1 -30 0 -59 -1 -65 -1 -5 -1 -14 0 -20 1 -5 1 -32 0 -60 0 -27 0 -72 0
-100 2 -76 2 -97 1 -135 -1 -19 -1 -43 -1 -52 1 -44 0 -85 0 -110 -1 -7 -1
-40 -1 -73 0 -33 0 -73 0 -90 0 -16 1 -58 2 -91 1 -34 -1 -66 -5 -72 -12 -20
18 -18 63 5 75 37 265 126 276 128 6 2 69 31 140 65 214 102 265 125 470 220
33 15 105 49 160 75 55 26 134 63 175 82 346 161 475 239 598 363 43 43 132
159 160 208 74 132 114 234 131 342 6 36 13 81 17 100 4 19 8 287 10 595 3
480 2 567 -11 610 -9 28 -20 52 -25 53 -6 2 -10 8 -10 14 0 29 -88 91 -155
108 -46 11 -1741 12 -1790 1z"/>
<path d="M4327 3265 c-38 -18 -71 -34 -75 -35 -4 -1 -23 -10 -43 -21 -20 -10
-39 -15 -43 -12 -3 4 -6 1 -6 -5 0 -7 -4 -12 -9 -12 -5 0 -53 -21 -108 -47
-54 -26 -100 -47 -103 -48 -14 -4 -66 -28 -170 -78 -63 -30 -144 -68 -180 -85
-36 -16 -114 -53 -173 -81 -60 -28 -110 -51 -111 -51 -2 0 -53 -23 -112 -52
-60 -29 -111 -53 -114 -53 -17 -4 -210 -102 -235 -119 -16 -12 -31 -19 -33
-18 -5 6 -132 -72 -132 -80 0 -4 -5 -8 -11 -8 -31 0 -167 -131 -246 -238 -43
-58 -132 -213 -139 -242 0 -3 -4 -14 -8 -25 -20 -51 -27 -75 -41 -141 -9 -39
-15 -75 -14 -80 1 -5 0 -11 -1 -14 -4 -10 -10 -87 -14 -175 -2 -49 -5 -94 -6
-100 -1 -5 -1 -14 0 -20 1 -5 1 -57 0 -115 0 -58 0 -123 0 -145 1 -22 1 -47 1
-55 -2 -36 1 -115 4 -118 2 -2 0 -14 -4 -26 -5 -11 -5 -30 -1 -41 4 -11 4 -34
-1 -52 -4 -18 -3 -35 1 -38 5 -3 5 -18 1 -33 -4 -15 -4 -39 0 -54 4 -16 3 -30
-2 -34 -6 -4 -6 -11 1 -19 8 -9 8 -15 0 -20 -6 -3 -8 -10 -5 -15 3 -5 7 -41
10 -82 5 -89 7 -95 28 -134 23 -44 71 -90 121 -117 l41 -22 885 -2 c649 -2
896 0 925 9 113 33 182 125 191 255 3 37 7 70 10 74 2 4 0 11 -6 14 -8 5 -8
11 -1 19 6 7 8 16 5 19 -6 6 -7 74 -1 132 1 17 -1 42 -5 57 -3 15 -3 30 2 33
5 3 5 18 1 33 -5 15 -5 36 -1 47 4 11 4 32 -1 47 -4 15 -4 30 1 33 5 3 5 18 1
33 -5 15 -5 36 -1 47 4 11 4 32 -1 47 -4 15 -4 30 1 33 5 3 5 18 1 33 -5 15
-5 36 -1 47 4 11 4 32 -1 47 -4 16 -3 30 2 34 5 3 7 10 3 15 -5 9 -6 34 -3
156 1 28 -2 56 -6 62 -3 6 -1 11 5 11 6 0 8 5 5 10 -4 6 -6 32 -6 58 1 26 1
72 0 102 0 30 1 64 1 75 2 35 2 39 -3 73 -2 17 -2 32 2 32 8 0 5 105 -3 119
-4 6 -2 11 4 11 6 0 8 5 5 10 -4 6 -6 32 -6 58 1 26 1 72 0 102 0 30 1 64 1
75 2 35 2 39 -3 73 -2 17 -2 32 2 32 8 0 5 105 -3 119 -4 6 -2 11 4 11 6 0 8
5 5 10 -4 6 -6 34 -6 63 1 29 1 63 0 77 0 14 0 32 0 40 4 63 2 110 -4 119 -3
6 -1 11 5 11 6 0 8 5 5 10 -6 10 -7 33 -4 158 1 29 -1 56 -4 59 -3 3 -2 15 2
27 5 11 5 30 1 41 -4 11 -4 29 0 41 16 40 -3 42 -73 9z"/>
</g>
</svg>
