<svg xmlns="http://www.w3.org/2000/svg" xmlns:xlink="http://www.w3.org/1999/xlink" width="130px" height="116px" viewBox="0 0 130 116" version="1.1" style="width: 24px; height: 24px;">
    <!-- Generator: Sketch 42 (36781) - http://www.bohemiancoding.com/sketch -->
    <title>deployment-manager</title>
    <desc>Created with Sketch.</desc>
    <defs>
        <path d="M92.0451239,115.338161 C95.8938914,115.078815 99.3864283,112.918273 101.332113,109.544934 L127.873409,63.5189947 C129.950202,59.9173344 129.950202,55.4805505 127.873409,51.8788902 L101.332113,5.85396336 C99.2553201,2.25230304 95.4161849,0.034417215 91.2625985,0.034417215 L38.1789965,0.034417215 C34.0254102,0.034417215 30.1872861,2.25230304 28.1104929,5.85396336 L1.5681863,51.8788902 C-0.508606872,55.4805505 -0.508606872,59.9173344 1.5681863,63.5189947 L28.1104929,109.544934 C30.0561778,112.918273 33.5478273,115.078815 37.3964828,115.338161 L92.0451239,115.338161" id="path-1"/>
    </defs>
    <g id="Page-1" stroke="none" stroke-width="1" fill="none" fill-rule="evenodd">
        <g id="Product-Logos" transform="translate(-685.000000, -543.000000)">
            <g id="deployment-manager" transform="translate(685.000000, 543.000000)">
                <g id="Group-3">
                    <mask id="mask-2" fill="white">
                        <use xlink:href="#path-1"/>
                    </mask>
                    <use id="Clip-2" fill="#4386F8" xlink:href="#path-1"/>
                    <path d="M97.6040324,38 L49.6629595,47.0235404 L31,62.6115899 L37.0411775,68.6492362 L31.5069803,73.6888825 L72.8491974,115 L91.17248,115 C95.3378303,115 99.1878389,112.77907 101.270514,109.175125 L126,66.3735937 L97.6040324,38" id="Fill-1" fill="#417ADC" mask="url(#mask-2)"/>
                </g>
                <path d="M75.0355033,83.3088933 L54.658866,83.3088933 C54.1007405,83.3088933 53.6487802,82.8553959 53.6487802,82.2966223 L53.6487802,82.2733401 C53.6487802,81.7135542 54.1007405,81.2610691 54.658866,81.2610691 L75.0355033,81.2610691 C75.5936288,81.2610691 76.0466002,81.7135542 76.0466002,82.2733401 L76.0466002,82.2966223 C76.0466002,82.8553959 75.5936288,83.3088933 75.0355033,83.3088933" id="Fill-4" fill="#FFFFFF"/>
                <polygon id="Fill-5" fill="#FFFFFF" points="60.9327227 73.3957232 68.7626577 73.3957232 68.7626577 82.2844751 60.9327227 82.2844751"/>
                <path d="M86.6246967,66.7785075 C86.1181372,66.7785075 85.6338217,66.5730164 85.2809489,66.2075866 L71.5472187,51.9598719 L62.3128701,61.6817228 C61.6435239,62.3872757 60.5444615,62.459147 59.788161,61.8477353 L52.812603,56.2093857 L45.4184508,66.0344882 C45.065578,66.5031697 44.513519,66.7785075 43.9280939,66.7785075 L31.249949,66.7785075 L31.249949,72.5403541 C31.249949,73.9099568 32.3702444,75.0315531 33.7382586,75.0315531 L95.9561107,75.0315531 C97.325136,75.0315531 98.4444203,73.9099568 98.4444203,72.5403541 L98.4444203,66.7785075 L86.6246967,66.7785075" id="Fill-6" fill="#FFFFFF"/>
                <path d="M42.9968736,63.0412028 L50.9916173,52.4164061 C51.2969686,52.01251 51.7519622,51.7493195 52.2544774,51.6865587 C52.7559815,51.6268347 53.2625411,51.7695649 53.6548467,52.087418 L60.7931913,57.8573629 L70.18426,47.971524 C70.5351107,47.6020451 71.0214483,47.392505 71.5300301,47.3904805 L71.5371078,47.3904805 C72.0436673,47.3904805 72.5279828,47.5959715 72.8798445,47.9614013 L87.4173968,63.0412028 L98.4444203,63.0412028 L98.4444203,40.1497058 C98.4444203,38.7790908 97.325136,37.6574945 95.9561107,37.6574945 L33.7382586,37.6574945 C32.3702444,37.6574945 31.249949,38.7790908 31.249949,40.1497058 L31.249949,63.0412028 L42.9968736,63.0412028" id="Fill-7" fill="#FFFFFF"/>
            </g>
        </g>
    </g>
</svg>