<svg width="32" height="32" xmlns="http://www.w3.org/2000/svg"><g fill="#1E1E1E"><path d="M16.026 31.964c-2 0-4-.01-6 0a2.303 2.303 0 0 1-1.93-.926A2417.057 2417.057 0 0 0 .578 21.69a2.265 2.265 0 0 1-.474-2.034c.906-3.92 1.81-7.843 2.713-11.766a2.148 2.148 0 0 1 1.23-1.534c3.645-1.738 7.288-3.48 10.93-5.226a2.315 2.315 0 0 1 2.091 0c3.644 1.74 7.29 3.477 10.936 5.21a2.216 2.216 0 0 1 1.27 1.587c.903 3.937 1.808 7.87 2.715 11.8a2.1 2.1 0 0 1-.425 1.886l-7.662 9.522a2.148 2.148 0 0 1-1.781.829c-2.032-.01-4.063 0-6.095 0zM15.237 8.34a8.464 8.464 0 0 0-5.387 2.563 2.009 2.009 0 0 1-1.488-.879c-.12-.124-.235-.254-.358-.375a3.108 3.108 0 0 0-.334-.306.666.666 0 0 0-.91.06.693.693 0 0 0 .07.94c.121.107.253.202.392.284.646.403 1.432.646 1.667 1.548a8.61 8.61 0 0 0-1.322 5.732c.006.06.008.163-.026.183a6.197 6.197 0 0 1-.917.482 3.95 3.95 0 0 1-.768.103 6.78 6.78 0 0 0-.985.167.64.64 0 0 0-.44.739c.059.312.35.526.666.488.235-.027.465-.083.685-.17a2.797 2.797 0 0 1 1.948-.339c.11.033.204.107.262.207a8.614 8.614 0 0 0 3.562 4.425c.06.039.154.104.148.15a3.72 3.72 0 0 1-.17.95 8.41 8.41 0 0 1-.594 1 3.243 3.243 0 0 0-.333.621.6.6 0 0 0 .305.743c.255.15.581.087.764-.145.152-.194.27-.413.346-.647.13-.743.538-1.41 1.14-1.865a8.664 8.664 0 0 0 5.967.023c.458.247.786.68.899 1.189.08.246.154.495.25.735.065.184.153.358.263.518a.622.622 0 0 0 .751.23.553.553 0 0 0 .39-.665 2.837 2.837 0 0 0-.332-.725c-.224-.394-.484-.767-.694-1.167a.914.914 0 0 1 .078-.932 8.663 8.663 0 0 0 3.547-4.455c.028-.077.075-.201.125-.208a2.86 2.86 0 0 1 .876-.06c.376.092.746.212 1.105.357.211.082.427.15.646.207a.688.688 0 0 0 .767-.414.556.556 0 0 0-.346-.658 2.562 2.562 0 0 0-.74-.2c-.456-.076-.932-.09-1.374-.206a1.533 1.533 0 0 1-.683-.431c-.083-.085.008-.327 0-.496-.046-.774-.047-1.554-.163-2.32a8.13 8.13 0 0 0-1.226-3.082c.185-.778.806-1.062 1.378-1.397a4.29 4.29 0 0 0 .414-.247 1.69 1.69 0 0 0 .35-.333.687.687 0 0 0-.033-.84.64.64 0 0 0-.829-.079c-.19.142-.365.302-.525.477-.496.498-.932 1.082-1.746 1.14a8.616 8.616 0 0 0-5.243-2.59.325.325 0 0 1-.207-.111 1.793 1.793 0 0 1-.233-1.325c.072-.414.122-.832.15-1.251a.678.678 0 0 0-.673-.725.701.701 0 0 0-.659.738c-.007.12-.003.239.012.357.29.748.221 1.587-.185 2.278v.01z"/><path d="M19.767 22.814l-.748-1.79c-.195-.467-.414-.926-.57-1.407a.953.953 0 0 1 .05-.66c.117-.235.382-.268.654-.22 1.06.188 2.125.361 3.188.541.05.009.103.027.207.056a6.993 6.993 0 0 1-2.781 3.48zM11.19 12.056a6.81 6.81 0 0 1 4.015-1.939c-.014.23-.028.409-.037.588-.05.916-.104 1.832-.147 2.747a.737.737 0 0 1-.362.708c-.288.15-.512.014-.74-.152-.893-.643-1.789-1.28-2.729-1.952zm-2.036 5.651a7.11 7.11 0 0 1 .998-4.347l2.4 2.136c.1.081.194.17.283.265a.576.576 0 0 1-.228.932c-1.125.345-2.256.662-3.453 1.014zm3.158 5.105a6.978 6.978 0 0 1-2.767-3.476l1.75-.31c.5-.087 1-.172 1.5-.255a.708.708 0 0 1 .77.19.725.725 0 0 1 .022.793c-.422 1.005-.838 2.01-1.275 3.058zm8.579-10.755c-.99.701-1.934 1.384-2.895 2.043a.569.569 0 0 1-.901-.414c-.079-1.14-.13-2.28-.192-3.427a.48.48 0 0 1 .042-.121 6.71 6.71 0 0 1 3.946 1.919zm2.032 5.646c-.351-.103-.66-.191-.969-.28-.765-.22-1.531-.443-2.3-.657a.665.665 0 0 1-.536-.5.612.612 0 0 1 .266-.622c.773-.691 1.54-1.387 2.311-2.08.07-.063.147-.119.246-.198a7.205 7.205 0 0 1 .982 4.337zm-9.107 5.846l.808-1.47c.287-.518.569-1.036.862-1.554a.574.574 0 0 1 1.043-.046c.584.994 1.129 2.01 1.715 3.063a6.972 6.972 0 0 1-4.428.007zm2.247-7.734c.207.062.475.064.61.198.25.214.433.496.525.813.044.33-.044.665-.244.932a1.205 1.205 0 0 1-1.827-.017 1.28 1.28 0 0 1-.247-.941c.096-.316.284-.597.542-.804.138-.127.407-.12.641-.181z"/></g></svg>