<svg width="28" height="34" xmlns="http://www.w3.org/2000/svg"><path d="M26.68 11.555a7.608 7.608 0 0 0 .946 13.464c-.32.761-.605 1.549-.959 2.297a19.63 19.63 0 0 1-3.559 5.212 4.08 4.08 0 0 1-3.4 1.406 9.985 9.985 0 0 1-1.894-.482 22.298 22.298 0 0 0-2.113-.727 6.382 6.382 0 0 0-3.893.429c-.683.294-1.387.54-2.106.733a3.4 3.4 0 0 1-2.806-.51 9.248 9.248 0 0 1-2.035-1.983 21.398 21.398 0 0 1-4.62-10.329 13.371 13.371 0 0 1 .68-7.405 8.342 8.342 0 0 1 6.032-5.176 7.312 7.312 0 0 1 4.565.53c.524.218 1.06.407 1.587.604a2.606 2.606 0 0 0 1.848 0c1.066-.386 2.112-.821 3.199-1.133a7.956 7.956 0 0 1 8.377 2.853l.152.217zM13.824 7.717A7.393 7.393 0 0 1 20.51.006c.553 3.783-3.095 8.152-6.686 7.71z" fill="#1E1E1E"/></svg>