<svg class="pcficon" viewBox="0 0 307 207" xmlns="http://www.w3.org/2000/svg">
<defs>
<style>
  .pcficon .a{fill:#008774;}
  .pcficon .b{fill:#00ae9e;}
</style>
</defs>
<path class="a" d="M162.56,172.39a79.94,79.94,0,1,0-157,21.16h0A79.33,79.33,0,0,0,8,201.12a3.29,3.29,0,0,0,3.07,2.08H32.86a3.28,3.28,0,0,0,2.89-4.85c-.86-1.55-1.63-3.15-2.34-4.78h0a53.58,53.58,0,1,1,102.79-21.16,53.14,53.14,0,0,1-4.4,21.16h0a53.45,53.45,0,0,1-2.49,5.07,3.08,3.08,0,0,0,2.71,4.57h22.25a3.09,3.09,0,0,0,2.89-2,79.26,79.26,0,0,0,2.52-7.68h0A79.61,79.61,0,0,0,162.56,172.39Z"></path>
<path class="b" d="M173.85,66.09A101.39,101.39,0,0,0,75.74,193.37h0c.68,2.6,1.43,5.18,2.31,7.69a3.21,3.21,0,0,0,3,2.13h21.46a3.19,3.19,0,0,0,2.9-4.52c-.79-1.73-1.49-3.5-2.14-5.3h0a75.13,75.13,0,1,1,141,0h0q-1,2.81-2.26,5.52a3,3,0,0,0,2.75,4.3H266.7a3.05,3.05,0,0,0,2.88-2c.9-2.55,1.66-5.16,2.35-7.8h0A101.39,101.39,0,0,0,173.85,66.09Z"></path>
<path class="a" d="M230,92.76a90,90,0,1,0-179.91,0c0,2.77.14,5.5.39,8.21H77a63.6,63.6,0,1,1,126.67-8.21c0,1.16,0,2.31-.1,3.45h0A63.22,63.22,0,0,1,190.83,131a3.4,3.4,0,0,0,2.72,5.46h23a3.43,3.43,0,0,0,3-1.8,89.33,89.33,0,0,0,10.29-38.47h0C230,95.06,230,93.92,230,92.76Z"></path>
<path class="a" d="M284.31,191.41v11.78h-1.7V191.41h-3.76v-1.58h9.23v1.58Zm17.24,11.78V192.14L297,203.19h-.49L292,192.14v11.05h-1.7V189.83h2.61l3.89,9.71,3.89-9.71h2.61v13.36Z"></path>
</svg>