<svg class="pksicon" height="1.83in" viewBox="0 0 128.16 131.47" width="1.78in" xmlns="http://www.w3.org/2000/svg">
<path class="a" fill="#008774" d="M82.12,56.87a3.13,3.13,0,0,1-1.54-2.53V1.23c0-1-.66-1.31-1.46-.8L67.5,7.82A3.52,3.52,0,0,0,66,10.47V63.59a3.13,3.13,0,0,0,1.54,2.53l44.51,23.07a3.33,3.33,0,0,0,3-.13l11.63-7.39a.91.91,0,0,0-.08-1.72Z"></path>
<path class="a" fill="#008774" d="M126.63,23.37,82.12.29a3.34,3.34,0,0,0-3,.13L67.5,7.82A3.52,3.52,0,0,0,66,10.47v.58h0a1.41,1.41,0,0,1,1.4-1.4,2,2,0,0,1,.72.19l43.92,22.77a3.13,3.13,0,0,1,1.54,2.53V87.68a1.41,1.41,0,0,1-1.41,1.41,1.39,1.39,0,0,1-.67-.18h0l.54.28a3.33,3.33,0,0,0,3-.13l11.63-7.39A3.52,3.52,0,0,0,128.16,79V25.89A3.13,3.13,0,0,0,126.63,23.37Z"></path>
<path class="a" fill="#008774" d="M49.12,77.85a3.13,3.13,0,0,1-1.54-2.53V22.21c0-1-.66-1.31-1.46-.8L34.5,28.8A3.52,3.52,0,0,0,33,31.45V84.57a3.13,3.13,0,0,0,1.54,2.53l44.51,23.07a3.33,3.33,0,0,0,3-.13l11.63-7.39a.91.91,0,0,0-.08-1.72Z"></path>
<path class="b" fill="#00ae9e" d="M93.63,44.34,49.12,21.27a3.34,3.34,0,0,0-3,.13L34.5,28.8A3.52,3.52,0,0,0,33,31.45V32h0a1.41,1.41,0,0,1,1.4-1.4,2,2,0,0,1,.72.19L79.08,53.59a3.13,3.13,0,0,1,1.54,2.53v52.54a1.41,1.41,0,0,1-1.41,1.41,1.39,1.39,0,0,1-.67-.18h0l.54.28a3.33,3.33,0,0,0,3-.13l11.63-7.39A3.52,3.52,0,0,0,95.16,100V46.87A3.13,3.13,0,0,0,93.63,44.34Z"></path>
<path class="c" fill="#0066ac" d="M16.08,98.85a3.13,3.13,0,0,1-1.54-2.53V43.21c0-1-.66-1.31-1.46-.8L1.46,49.8A3.52,3.52,0,0,0,0,52.46v53.12a3.13,3.13,0,0,0,1.54,2.53L46,131.17a3.33,3.33,0,0,0,3-.13l11.63-7.39a.91.91,0,0,0-.08-1.72Z"></path>
<path class="d" fill="#009fdf" d="M60.59,65.35,16.08,42.28a3.34,3.34,0,0,0-3,.13L1.46,49.8A3.52,3.52,0,0,0,0,52.46V53H0a1.4,1.4,0,0,1,1.4-1.4,2,2,0,0,1,.72.19L46,74.6a3.13,3.13,0,0,1,1.54,2.53v52.54a1.41,1.41,0,0,1-1.41,1.41,1.39,1.39,0,0,1-.67-.18h0l.54.28a3.33,3.33,0,0,0,3-.13l11.63-7.39A3.52,3.52,0,0,0,62.13,121V67.87A3.13,3.13,0,0,0,60.59,65.35Z"></path>
</svg>